<svg data-name="calendar (5)" xmlns="http://www.w3.org/2000/svg" width="127" height="127">
  <path data-name="Path 3604" d="M112.1 37.7v63.2a11.1 11.1 0 0 1-11.2 11.2H11.2A11.1 11.1 0 0 1 0 101V37.7l7.4-8h97.3Z" fill="#e1e4fb"/>
  <path data-name="Path 3605" d="M112.1 37.7v63.2a11.1 11.1 0 0 1-11.2 11.2H56.1V29.8h48.6Z" fill="#c5c9f7"/>
  <path data-name="Path 3606" d="M112.1 18.6v19.1H0V18.6A11.1 11.1 0 0 1 11.2 7.4h89.7a11.1 11.1 0 0 1 11.2 11.2Z" fill="#ff507e"/>
  <path data-name="Path 3607" d="M112.1 18.6v19.1h-56V7.4h44.8a11.1 11.1 0 0 1 11.2 11.2Z" fill="#f40f78"/>
  <g data-name="Group 2803" fill="#7a7780">
    <path data-name="Path 3608" d="M18.6 22.3a3.7 3.7 0 0 1-3.7-3.7V3.7a3.7 3.7 0 1 1 7.4 0v14.9a3.7 3.7 0 0 1-3.7 3.7Z"/>
    <path data-name="Path 3609" d="M41 22.3a3.7 3.7 0 0 1-3.8-3.7V3.7a3.7 3.7 0 0 1 7.4 0v14.9a3.7 3.7 0 0 1-3.7 3.7Z"/>
  </g>
  <g data-name="Group 2804" fill="#57555c">
    <path data-name="Path 3610" d="M71.2 22.3a3.7 3.7 0 0 1-3.7-3.7V3.7a3.7 3.7 0 0 1 7.4 0v14.9a3.7 3.7 0 0 1-3.7 3.7Z"/>
    <path data-name="Path 3611" d="M93.5 22.3a3.7 3.7 0 0 1-3.7-3.7V3.7a3.7 3.7 0 1 1 7.4 0v14.9a3.7 3.7 0 0 1-3.7 3.7Z"/>
  </g>
  <g data-name="Group 2805" fill="#adacb2">
    <path data-name="Path 3612" d="M26 52.6h-7.4a3.7 3.7 0 0 1 0-7.5H26a3.7 3.7 0 0 1 0 7.5Z"/>
    <path data-name="Path 3613" d="M48.6 52.6H41a3.7 3.7 0 1 1 0-7.5h7.7a3.7 3.7 0 0 1 0 7.5Z"/>
  </g>
  <g data-name="Group 2806" fill="#8a8891">
    <path data-name="Path 3614" d="M71.2 52.6h-7.7a3.7 3.7 0 0 1 0-7.5h7.7a3.7 3.7 0 0 1 0 7.5Z"/>
    <path data-name="Path 3615" d="M93.5 52.6h-7.4a3.7 3.7 0 1 1 0-7.5h7.4a3.7 3.7 0 1 1 0 7.5Z"/>
  </g>
  <g data-name="Group 2807" fill="#adacb2">
    <path data-name="Path 3616" d="M26 67.5h-7.4a3.7 3.7 0 1 1 0-7.5H26a3.7 3.7 0 1 1 0 7.5Z"/>
    <path data-name="Path 3617" d="M48.6 67.5H41a3.7 3.7 0 1 1 0-7.5h7.7a3.7 3.7 0 0 1 0 7.5Z"/>
  </g>
  <g data-name="Group 2808" fill="#8a8891">
    <path data-name="Path 3618" d="M71.2 67.5h-7.7a3.7 3.7 0 1 1 0-7.5h7.7a3.7 3.7 0 1 1 0 7.5Z"/>
    <path data-name="Path 3619" d="M93.5 67.5h-7.4a3.7 3.7 0 1 1 0-7.5h7.4a3.7 3.7 0 1 1 0 7.5Z"/>
  </g>
  <g data-name="Group 2809" fill="#adacb2">
    <path data-name="Path 3620" d="M26 82.3h-7.4a3.7 3.7 0 0 1 0-7.4H26a3.7 3.7 0 0 1 0 7.4Z"/>
    <path data-name="Path 3621" d="M48.6 82.3H41a3.7 3.7 0 0 1 0-7.4h7.7a3.7 3.7 0 0 1 0 7.4Z"/>
  </g>
  <path data-name="Path 3622" d="M71.2 82.3h-7.7a3.7 3.7 0 0 1 0-7.4h7.7a3.7 3.7 0 0 1 0 7.4Z" fill="#8a8891"/>
  <g data-name="Group 2810" fill="#adacb2">
    <path data-name="Path 3623" d="M26 97.2h-7.4a3.7 3.7 0 1 1 0-7.4H26a3.7 3.7 0 1 1 0 7.4Z"/>
    <path data-name="Path 3624" d="M48.6 97.2H41a3.7 3.7 0 1 1 0-7.4h7.7a3.7 3.7 0 1 1 0 7.4Z"/>
  </g>
  <path data-name="Path 3625" d="M71.2 97.2h-7.7a3.7 3.7 0 1 1 0-7.4h7.7a3.7 3.7 0 1 1 0 7.4Z" fill="#8a8891"/>
  <path data-name="Path 3626" d="M101 74.9a26 26 0 1 0 26 26 26 26 0 0 0-26-26Z" fill="#fea832"/>
  <path data-name="Path 3627" d="M127 101a26 26 0 0 1-26 26V74.9a26 26 0 0 1 26 26Z" fill="#fe9923"/>
  <path data-name="Path 3628" d="M112.1 101a3.7 3.7 0 0 1-3.7 3.7h-7.5a3.7 3.7 0 0 1-3.7-3.8V86.1a3.7 3.7 0 1 1 7.5 0v11.1h3.7a3.7 3.7 0 0 1 3.7 3.7Z" fill="#7a7780"/>
  <path data-name="Path 3629" d="M112.1 101a3.7 3.7 0 0 1-3.7 3.7h-7.5V82.3a3.7 3.7 0 0 1 3.8 3.8v11.1h3.7a3.7 3.7 0 0 1 3.7 3.7Z" fill="#57555c"/>
</svg>
