<?xml version="1.0" encoding="UTF-8" standalone="no"?> <svg id="calendar_5_" data-name="calendar (5)" xmlns="http://www.w3.org/2000/svg" width="126.989" height="126.989" viewBox="0 0 126.989 126.989">
  <path id="Path_3604" data-name="Path 3604" d="M112.108,127.937v63.247a11.146,11.146,0,0,1-11.161,11.161H11.161A11.146,11.146,0,0,1,0,191.183V127.937L7.441,120h97.226Z" transform="translate(0 -90.237)" fill="#e1e4fb"/>
  <path id="Path_3605" data-name="Path 3605" d="M282.054,127.937v63.247a11.146,11.146,0,0,1-11.161,11.161H226V120h48.613Z" transform="translate(-169.946 -90.237)" fill="#c5c9f7"/>
  <path id="Path_3606" data-name="Path 3606" d="M112.108,41.161v19.1H0v-19.1A11.146,11.146,0,0,1,11.161,30h89.785A11.146,11.146,0,0,1,112.108,41.161Z" transform="translate(0 -22.559)" fill="#ff507e"/>
  <path id="Path_3607" data-name="Path 3607" d="M282.054,41.161v19.1H226V30h44.893A11.146,11.146,0,0,1,282.054,41.161Z" transform="translate(-169.946 -22.559)" fill="#f40f78"/>
  <g id="Group_2803" data-name="Group 2803" transform="translate(14.882)">
    <path id="Path_3608" data-name="Path 3608" d="M63.72,22.322A3.718,3.718,0,0,1,60,18.6V3.72a3.72,3.72,0,1,1,7.441,0V18.6A3.718,3.718,0,0,1,63.72,22.322Z" transform="translate(-60)" fill="#7a7780"/>
    <path id="Path_3609" data-name="Path 3609" d="M153.72,22.322A3.718,3.718,0,0,1,150,18.6V3.72a3.72,3.72,0,0,1,7.441,0V18.6A3.718,3.718,0,0,1,153.72,22.322Z" transform="translate(-127.678)" fill="#7a7780"/>
  </g>
  <g id="Group_2804" data-name="Group 2804" transform="translate(67.463)">
    <path id="Path_3610" data-name="Path 3610" d="M275.72,22.322A3.718,3.718,0,0,1,272,18.6V3.72a3.72,3.72,0,0,1,7.441,0V18.6A3.718,3.718,0,0,1,275.72,22.322Z" transform="translate(-272)" fill="#57555c"/>
    <path id="Path_3611" data-name="Path 3611" d="M365.72,22.322A3.718,3.718,0,0,1,362,18.6V3.72a3.72,3.72,0,1,1,7.441,0V18.6A3.718,3.718,0,0,1,365.72,22.322Z" transform="translate(-339.678)" fill="#57555c"/>
  </g>
  <g id="Group_2805" data-name="Group 2805" transform="translate(14.882 45.141)">
    <path id="Path_3612" data-name="Path 3612" d="M71.161,189.441H63.72a3.72,3.72,0,0,1,0-7.441h7.441a3.72,3.72,0,0,1,0,7.441Z" transform="translate(-60 -182)" fill="#adacb2"/>
    <path id="Path_3613" data-name="Path 3613" d="M161.409,189.441H153.72a3.72,3.72,0,1,1,0-7.441h7.689a3.72,3.72,0,0,1,0,7.441Z" transform="translate(-127.678 -182)" fill="#adacb2"/>
  </g>
  <g id="Group_2806" data-name="Group 2806" transform="translate(59.774 45.141)">
    <path id="Path_3614" data-name="Path 3614" d="M252.409,189.441H244.72a3.72,3.72,0,0,1,0-7.441h7.689a3.72,3.72,0,0,1,0,7.441Z" transform="translate(-241 -182)" fill="#8a8891"/>
    <path id="Path_3615" data-name="Path 3615" d="M343.161,189.441H335.72a3.72,3.72,0,1,1,0-7.441h7.441a3.72,3.72,0,1,1,0,7.441Z" transform="translate(-309.43 -182)" fill="#8a8891"/>
  </g>
  <g id="Group_2807" data-name="Group 2807" transform="translate(14.882 60.022)">
    <path id="Path_3616" data-name="Path 3616" d="M71.161,249.441H63.72a3.72,3.72,0,1,1,0-7.441h7.441a3.72,3.72,0,1,1,0,7.441Z" transform="translate(-60 -242)" fill="#adacb2"/>
    <path id="Path_3617" data-name="Path 3617" d="M161.409,249.441H153.72a3.72,3.72,0,1,1,0-7.441h7.689a3.72,3.72,0,0,1,0,7.441Z" transform="translate(-127.678 -242)" fill="#adacb2"/>
  </g>
  <g id="Group_2808" data-name="Group 2808" transform="translate(59.774 60.022)">
    <path id="Path_3618" data-name="Path 3618" d="M252.409,249.441H244.72a3.72,3.72,0,1,1,0-7.441h7.689a3.72,3.72,0,1,1,0,7.441Z" transform="translate(-241 -242)" fill="#8a8891"/>
    <path id="Path_3619" data-name="Path 3619" d="M343.161,249.441H335.72a3.72,3.72,0,1,1,0-7.441h7.441a3.72,3.72,0,1,1,0,7.441Z" transform="translate(-309.43 -242)" fill="#8a8891"/>
  </g>
  <g id="Group_2809" data-name="Group 2809" transform="translate(14.882 74.904)">
    <path id="Path_3620" data-name="Path 3620" d="M71.161,309.441H63.72a3.72,3.72,0,0,1,0-7.441h7.441a3.72,3.72,0,0,1,0,7.441Z" transform="translate(-60 -302)" fill="#adacb2"/>
    <path id="Path_3621" data-name="Path 3621" d="M161.409,309.441H153.72a3.72,3.72,0,0,1,0-7.441h7.689a3.72,3.72,0,0,1,0,7.441Z" transform="translate(-127.678 -302)" fill="#adacb2"/>
  </g>
  <path id="Path_3622" data-name="Path 3622" d="M252.409,309.441H244.72a3.72,3.72,0,0,1,0-7.441h7.689a3.72,3.72,0,0,1,0,7.441Z" transform="translate(-181.226 -227.096)" fill="#8a8891"/>
  <g id="Group_2810" data-name="Group 2810" transform="translate(14.882 89.785)">
    <path id="Path_3623" data-name="Path 3623" d="M71.161,369.441H63.72a3.72,3.72,0,1,1,0-7.441h7.441a3.72,3.72,0,1,1,0,7.441Z" transform="translate(-60 -362)" fill="#adacb2"/>
    <path id="Path_3624" data-name="Path 3624" d="M161.409,369.441H153.72a3.72,3.72,0,1,1,0-7.441h7.689a3.72,3.72,0,1,1,0,7.441Z" transform="translate(-127.678 -362)" fill="#adacb2"/>
  </g>
  <path id="Path_3625" data-name="Path 3625" d="M252.409,369.441H244.72a3.72,3.72,0,1,1,0-7.441h7.689a3.72,3.72,0,1,1,0,7.441Z" transform="translate(-181.226 -272.215)" fill="#8a8891"/>
  <path id="Path_3626" data-name="Path 3626" d="M328.043,302a26.043,26.043,0,1,0,26.043,26.043A26.071,26.071,0,0,0,328.043,302Z" transform="translate(-227.096 -227.096)" fill="#fea832"/>
  <path id="Path_3627" data-name="Path 3627" d="M433.043,328.043A26.071,26.071,0,0,1,407,354.085V302A26.071,26.071,0,0,1,433.043,328.043Z" transform="translate(-306.053 -227.096)" fill="#fe9923"/>
  <path id="Path_3628" data-name="Path 3628" d="M406.882,350.6a3.684,3.684,0,0,1-3.72,3.72H395.72A3.684,3.684,0,0,1,392,350.6V335.72a3.72,3.72,0,1,1,7.441,0v11.161h3.72A3.684,3.684,0,0,1,406.882,350.6Z" transform="translate(-294.774 -249.655)" fill="#7a7780"/>
  <path id="Path_3629" data-name="Path 3629" d="M418.161,350.6a3.684,3.684,0,0,1-3.72,3.72H407V332a3.684,3.684,0,0,1,3.72,3.72v11.161h3.72A3.684,3.684,0,0,1,418.161,350.6Z" transform="translate(-306.053 -249.655)" fill="#57555c"/>
</svg>
